<svg id="Layer_1" data-name="Layer 1" xmlns="http://www.w3.org/2000/svg" viewBox="0 0 564.8 978.87"><title>1</title><path d="M702.08,697.58H940.29c6.45,0,6.44,0,3.88,6-9.29,21.65-18.66,43.27-27.8,65-1.43,3.41-3.15,5.11-7,4.62a58.45,58.45,0,0,0-7.49,0c-12.51,0-12.54,0-16.88,11.51Q806,993.84,726.94,1203.07c-1.42,3.74-2.85,7.46-5.31,10.66-12.3,16-32.4,14.15-41.66-4-2.78-5.44-4.7-11.32-6.87-17.06Q594.71,985.29,516.45,777.88c-1.45-3.83-3.17-5.13-7.12-4.86-5.14.35-10.32-.08-15.47.16-3.15.15-4.65-1-5.89-3.93Q473.74,735.55,459.08,702c-1.86-4.25-.42-4.51,3.29-4.5q80.4.13,160.81.07h78.9Z" transform="translate(-419.73 -245.75)"/><path d="M589.13,660.21q-76.9,0-153.81.09c-3.76,0-5.48-1-6.73-4.67-21.71-63.57-2.66-133.73,47.81-178.45,27.74-24.57,59.76-38.53,96.37-42.35,70.06-7.32,139.43,32.25,169.3,96.14,13,27.75,18.37,56.76,15.7,87.21-1.11,12.76-4.27,25.16-8.18,37.37-1.14,3.59-2.82,4.77-6.65,4.76Q666,660.09,589.13,660.21Z" transform="translate(-419.73 -245.75)"/><path d="M718,427.21c29.55-20.42,61.67-30.82,97.19-30.63,81.62.44,150.55,57,166,137.34,8.37,43.35.77,84.22-22.59,122-1.95,3.16-4.08,4.43-7.95,4.42-48.43-.15-96.87-.09-145.3-.09-5.85,0-5.75,0-4.56-5.55,19.62-91.57-8.37-166.19-80.23-225.16C719.85,428.88,719.13,428.21,718,427.21Z" transform="translate(-419.73 -245.75)"/><path d="M819.22,347.62a218,218,0,0,0-78.42,12.85c-24.57,8.69-46.38,22.1-66.43,38.53-2.37,1.94-4.18,2.29-7,1.16-31.09-12.27-63.31-17.32-96.64-14.39a213.54,213.54,0,0,0-70.41,18.46c-4.11,1.88-4.54,1.07-4.19-3A168,168,0,0,1,534,307.61c28.26-34.65,65.14-54.84,109.31-60.41,48-6.06,91.15,6.93,128.8,37.39a160,160,0,0,1,45.28,58.71C818,344.47,818.41,345.68,819.22,347.62Z" transform="translate(-419.73 -245.75)"/></svg>